<mxfile host="app.diagrams.net" modified="2022-11-25T01:28:12.358Z" agent="5.0 (Windows NT 10.0; Win64; x64) AppleWebKit/537.36 (KHTML, like Gecko) Chrome/107.0.0.0 Safari/537.36" etag="09zSFVgZ1uxze2ju1nnQ" version="20.5.1" type="github">
  <diagram id="ZbH6aTCmGhbk6LD3PjUO" name="第 1 页">
    <mxGraphModel dx="1422" dy="1955" grid="1" gridSize="10" guides="1" tooltips="1" connect="1" arrows="1" fold="1" page="1" pageScale="1" pageWidth="827" pageHeight="1169" math="0" shadow="0">
      <root>
        <mxCell id="0" />
        <mxCell id="1" parent="0" />
        <mxCell id="iuMBKOauWGnpF8MhhI_y-1" value="" style="edgeStyle=none;html=1;" edge="1" parent="1" source="iuMBKOauWGnpF8MhhI_y-2" target="iuMBKOauWGnpF8MhhI_y-4">
          <mxGeometry relative="1" as="geometry" />
        </mxCell>
        <mxCell id="iuMBKOauWGnpF8MhhI_y-2" value="开始" style="rounded=0;whiteSpace=wrap;html=1;" vertex="1" parent="1">
          <mxGeometry x="414" y="120" width="120" height="60" as="geometry" />
        </mxCell>
        <mxCell id="iuMBKOauWGnpF8MhhI_y-19" style="edgeStyle=orthogonalEdgeStyle;rounded=0;orthogonalLoop=1;jettySize=auto;html=1;exitX=0.5;exitY=1;exitDx=0;exitDy=0;entryX=0.5;entryY=0;entryDx=0;entryDy=0;" edge="1" parent="1" source="iuMBKOauWGnpF8MhhI_y-4" target="iuMBKOauWGnpF8MhhI_y-9">
          <mxGeometry relative="1" as="geometry" />
        </mxCell>
        <mxCell id="iuMBKOauWGnpF8MhhI_y-4" value="pull 镜像" style="whiteSpace=wrap;html=1;rounded=0;" vertex="1" parent="1">
          <mxGeometry x="414" y="216" width="120" height="60" as="geometry" />
        </mxCell>
        <mxCell id="iuMBKOauWGnpF8MhhI_y-5" value="" style="edgeStyle=none;html=1;" edge="1" parent="1" source="iuMBKOauWGnpF8MhhI_y-9" target="iuMBKOauWGnpF8MhhI_y-13">
          <mxGeometry relative="1" as="geometry" />
        </mxCell>
        <mxCell id="iuMBKOauWGnpF8MhhI_y-6" value="Y" style="edgeLabel;html=1;align=center;verticalAlign=middle;resizable=0;points=[];" vertex="1" connectable="0" parent="iuMBKOauWGnpF8MhhI_y-5">
          <mxGeometry x="-0.4333" y="533" relative="1" as="geometry">
            <mxPoint as="offset" />
          </mxGeometry>
        </mxCell>
        <mxCell id="iuMBKOauWGnpF8MhhI_y-7" value="" style="edgeStyle=none;html=1;" edge="1" parent="1" source="iuMBKOauWGnpF8MhhI_y-9" target="iuMBKOauWGnpF8MhhI_y-15">
          <mxGeometry relative="1" as="geometry" />
        </mxCell>
        <mxCell id="iuMBKOauWGnpF8MhhI_y-8" value="N" style="edgeLabel;html=1;align=center;verticalAlign=middle;resizable=0;points=[];" vertex="1" connectable="0" parent="iuMBKOauWGnpF8MhhI_y-7">
          <mxGeometry x="-0.2593" y="437" relative="1" as="geometry">
            <mxPoint as="offset" />
          </mxGeometry>
        </mxCell>
        <mxCell id="iuMBKOauWGnpF8MhhI_y-9" value="Docker registry是否返回&lt;br&gt;支持multi arch的&lt;br&gt;manifest lists对象" style="rhombus;whiteSpace=wrap;html=1;rounded=0;" vertex="1" parent="1">
          <mxGeometry x="379" y="308" width="190" height="100" as="geometry" />
        </mxCell>
        <mxCell id="iuMBKOauWGnpF8MhhI_y-11" style="edgeStyle=none;html=1;exitX=1;exitY=0.5;exitDx=0;exitDy=0;entryX=1;entryY=0.5;entryDx=0;entryDy=0;" edge="1" parent="1">
          <mxGeometry relative="1" as="geometry">
            <Array as="points">
              <mxPoint x="640" y="496" />
              <mxPoint x="640" y="687" />
            </Array>
            <mxPoint x="565" y="496" as="sourcePoint" />
            <mxPoint x="530" y="687" as="targetPoint" />
          </mxGeometry>
        </mxCell>
        <mxCell id="iuMBKOauWGnpF8MhhI_y-12" value="N" style="edgeLabel;html=1;align=center;verticalAlign=middle;resizable=0;points=[];" vertex="1" connectable="0" parent="iuMBKOauWGnpF8MhhI_y-11">
          <mxGeometry x="-0.7278" y="1" relative="1" as="geometry">
            <mxPoint as="offset" />
          </mxGeometry>
        </mxCell>
        <mxCell id="iuMBKOauWGnpF8MhhI_y-20" value="Y" style="edgeStyle=orthogonalEdgeStyle;rounded=0;orthogonalLoop=1;jettySize=auto;html=1;exitX=0.5;exitY=1;exitDx=0;exitDy=0;entryX=0.5;entryY=0;entryDx=0;entryDy=0;" edge="1" parent="1" source="iuMBKOauWGnpF8MhhI_y-13" target="iuMBKOauWGnpF8MhhI_y-17">
          <mxGeometry relative="1" as="geometry" />
        </mxCell>
        <mxCell id="iuMBKOauWGnpF8MhhI_y-13" value="是否找到对应镜像" style="rhombus;whiteSpace=wrap;html=1;rounded=0;" vertex="1" parent="1">
          <mxGeometry x="379" y="446" width="190" height="100" as="geometry" />
        </mxCell>
        <mxCell id="iuMBKOauWGnpF8MhhI_y-14" style="edgeStyle=none;html=1;exitX=0.5;exitY=1;exitDx=0;exitDy=0;entryX=0.5;entryY=0;entryDx=0;entryDy=0;" edge="1" parent="1" source="iuMBKOauWGnpF8MhhI_y-15" target="iuMBKOauWGnpF8MhhI_y-13">
          <mxGeometry relative="1" as="geometry">
            <Array as="points">
              <mxPoint x="690" y="446" />
            </Array>
          </mxGeometry>
        </mxCell>
        <mxCell id="iuMBKOauWGnpF8MhhI_y-15" value="old case" style="whiteSpace=wrap;html=1;rounded=0;" vertex="1" parent="1">
          <mxGeometry x="631" y="328" width="120" height="60" as="geometry" />
        </mxCell>
        <mxCell id="iuMBKOauWGnpF8MhhI_y-16" value="" style="edgeStyle=none;html=1;" edge="1" parent="1" source="iuMBKOauWGnpF8MhhI_y-17" target="iuMBKOauWGnpF8MhhI_y-18">
          <mxGeometry relative="1" as="geometry" />
        </mxCell>
        <mxCell id="iuMBKOauWGnpF8MhhI_y-17" value="pull镜像" style="whiteSpace=wrap;html=1;rounded=0;" vertex="1" parent="1">
          <mxGeometry x="414" y="585" width="120" height="60" as="geometry" />
        </mxCell>
        <mxCell id="iuMBKOauWGnpF8MhhI_y-18" value="结束" style="whiteSpace=wrap;html=1;rounded=0;" vertex="1" parent="1">
          <mxGeometry x="414" y="681" width="120" height="60" as="geometry" />
        </mxCell>
      </root>
    </mxGraphModel>
  </diagram>
</mxfile>
